<svg xmlns="http://www.w3.org/2000/svg" viewBox="-37.0 -66.0 80.0 80.0" width="96" height="96"><defs><radialGradient id="sh"><stop offset="0" stop-color="#101810" stop-opacity=".32"/><stop offset="1" stop-color="#101810" stop-opacity="0"/></radialGradient><linearGradient id="inkl" x1="0" y1="0" x2="1" y2="1"><stop offset="0" stop-color="#586058"/><stop offset="1" stop-color="#2d332d"/></linearGradient><linearGradient id="inkr" x1="0" y1="0" x2="1" y2="1"><stop offset="0" stop-color="#2d332d"/><stop offset="1" stop-color="#141814"/></linearGradient><linearGradient id="inkt" x1="0" y1="0" x2="1" y2="1"><stop offset="0" stop-color="#586058"/><stop offset="1" stop-color="#2d332d"/></linearGradient><linearGradient id="crimsont" x1="0" y1="0" x2="1" y2="1"><stop offset="0" stop-color="#e4506a"/><stop offset="1" stop-color="#b0182e"/></linearGradient><linearGradient id="inkc" x1="0" y1="0" x2="1" y2="1"><stop offset="0" stop-color="#586058"/><stop offset="1" stop-color="#141814"/></linearGradient><linearGradient id="metalt" x1="0" y1="0" x2="1" y2="1"><stop offset="0" stop-color="#f2f4f2"/><stop offset="1" stop-color="#c5cbc6"/></linearGradient><linearGradient id="icel" x1="0" y1="0" x2="1" y2="1"><stop offset="0" stop-color="#f1f7f8"/><stop offset="1" stop-color="#cfe0e3"/></linearGradient></defs><ellipse cx="3.0" cy="2.0" rx="25.0" ry="10.0" fill="url(#sh)"/><path d="M0.0 -34.0L13.9 -8.0" stroke="#858d88" stroke-width="2.6" stroke-linecap="round"/><path d="M-0.5 -34.0L13.4 -8.0" stroke="#f2f4f2" stroke-width="1.0" stroke-linecap="round"/><path d="M0.0 -34.0L-21.7 -2.5" stroke="#858d88" stroke-width="2.6" stroke-linecap="round"/><path d="M-0.5 -34.0L-22.2 -2.5" stroke="#f2f4f2" stroke-width="1.0" stroke-linecap="round"/><path d="M0.0 -34.0L6.1 11.5" stroke="#858d88" stroke-width="2.6" stroke-linecap="round"/><path d="M-0.5 -34.0L5.6 11.5" stroke="#f2f4f2" stroke-width="1.0" stroke-linecap="round"/><polygon points="-5.2,-35.0 0.0,-32.0 0.0,-27.0 -5.2,-30.0" fill="url(#inkl)" stroke="url(#inkl)" stroke-width="1.2" stroke-linejoin="round"/><polygon points="5.2,-35.0 0.0,-32.0 0.0,-27.0 5.2,-30.0" fill="url(#inkr)" stroke="url(#inkr)" stroke-width="1.2" stroke-linejoin="round"/><polygon points="0.0,-38.0 5.2,-35.0 0.0,-32.0 -5.2,-35.0" fill="url(#inkt)" stroke="url(#inkt)" stroke-width="1.2" stroke-linejoin="round"/><polyline points="-5.2,-30.0 -5.2,-35.0 0.0,-38.0 5.2,-35.0" fill="none" stroke="#fff" stroke-opacity="0.7" stroke-width=".8" stroke-linecap="round" stroke-linejoin="round"/><polygon points="-17.3,-57.0 6.9,-43.0 6.9,-25.0 -17.3,-39.0" fill="url(#inkl)" stroke="url(#inkl)" stroke-width="1.2" stroke-linejoin="round"/><polygon points="19.1,-50.0 6.9,-43.0 6.9,-25.0 19.1,-32.0" fill="url(#inkr)" stroke="url(#inkr)" stroke-width="1.2" stroke-linejoin="round"/><polygon points="-5.2,-64.0 19.1,-50.0 6.9,-43.0 -17.3,-57.0" fill="url(#inkt)" stroke="url(#inkt)" stroke-width="1.2" stroke-linejoin="round"/><polyline points="-17.3,-39.0 -17.3,-57.0 -5.2,-64.0 19.1,-50.0" fill="none" stroke="#fff" stroke-opacity="0.7" stroke-width=".8" stroke-linecap="round" stroke-linejoin="round"/><polygon points="-7.8,-58.5 1.7,-53.0 1.7,-48.0 -7.8,-53.5" fill="url(#inkl)" stroke="url(#inkl)" stroke-width="1.2" stroke-linejoin="round"/><polygon points="10.4,-58.0 1.7,-53.0 1.7,-48.0 10.4,-53.0" fill="url(#inkr)" stroke="url(#inkr)" stroke-width="1.2" stroke-linejoin="round"/><polygon points="0.9,-63.5 10.4,-58.0 1.7,-53.0 -7.8,-58.5" fill="url(#inkt)" stroke="url(#inkt)" stroke-width="1.2" stroke-linejoin="round"/><polyline points="-7.8,-53.5 -7.8,-58.5 0.9,-63.5 10.4,-58.0" fill="none" stroke="#fff" stroke-opacity="0.7" stroke-width=".8" stroke-linecap="round" stroke-linejoin="round"/><polygon points="9.5,-50.6 12.1,-49.1 9.5,-47.6 6.9,-49.1" fill="url(#crimsont)" stroke="url(#crimsont)" stroke-width="1.2" stroke-linejoin="round"/><polygon points="-19.5,-40.2 -19.3,-41.8 -18.8,-43.1 -18.1,-44.1 -9.2,-49.2 -8.0,-49.4 -6.6,-49.1 -5.2,-48.5 -3.8,-47.5 -2.4,-46.1 -1.1,-44.5 -0.1,-42.7 0.7,-40.9 1.1,-39.0 1.3,-37.2 1.1,-35.7 0.7,-34.4 -0.1,-33.4 -7.9,-28.9 -8.9,-28.3 -10.2,-28.1 -11.6,-28.4 -13.0,-29.0 -14.4,-30.0 -15.8,-31.4 -17.0,-33.0 -18.1,-34.8 -18.8,-36.6 -19.3,-38.5" fill="url(#inkc)"/><polygon points="-6.5,-32.8 -6.7,-34.5 -7.1,-36.4 -7.9,-38.2 -8.9,-40.0 -10.2,-41.6 -11.5,-43.0 -13.0,-44.0 -14.4,-44.6 -15.8,-44.9 -17.0,-44.7 -18.1,-44.1 -18.8,-43.1 -19.3,-41.8 -19.5,-40.2 -19.3,-38.5 -18.8,-36.6 -18.1,-34.8 -17.0,-33.0 -15.8,-31.4 -14.4,-30.0 -13.0,-29.0 -11.5,-28.4 -10.2,-28.1 -8.9,-28.3 -7.9,-28.9 -7.1,-29.9 -6.7,-31.2" fill="url(#metalt)" stroke="url(#metalt)" stroke-width="1.2" stroke-linejoin="round"/><polygon points="-8.7,-33.8 -8.8,-35.0 -9.1,-36.3 -9.6,-37.6 -10.4,-38.8 -11.2,-40.0 -12.2,-40.9 -13.2,-41.6 -14.2,-42.0 -15.1,-42.2 -16.0,-42.1 -16.7,-41.7 -17.2,-41.0 -17.6,-40.1 -17.7,-39.0 -17.6,-37.8 -17.2,-36.5 -16.7,-35.2 -16.0,-34.0 -15.1,-32.8 -14.2,-31.9 -13.2,-31.2 -12.2,-30.8 -11.2,-30.6 -10.4,-30.7 -9.6,-31.1 -9.1,-31.8 -8.8,-32.7" fill="url(#icel)" stroke="url(#icel)" stroke-width="1.2" stroke-linejoin="round"/></svg>