<svg xmlns="http://www.w3.org/2000/svg" viewBox="-36.5 -60.0 79.0 79.0" width="96" height="96"><defs><radialGradient id="sh"><stop offset="0" stop-color="#101810" stop-opacity=".32"/><stop offset="1" stop-color="#101810" stop-opacity="0"/></radialGradient><linearGradient id="paperl" x1="0" y1="0" x2="1" y2="1"><stop offset="0" stop-color="#fdfcf8"/><stop offset="1" stop-color="#ebe9e1"/></linearGradient><linearGradient id="paperr" x1="0" y1="0" x2="1" y2="1"><stop offset="0" stop-color="#ebe9e1"/><stop offset="1" stop-color="#c9c6ba"/></linearGradient><linearGradient id="papert" x1="0" y1="0" x2="1" y2="1"><stop offset="0" stop-color="#fdfcf8"/><stop offset="1" stop-color="#ebe9e1"/></linearGradient><linearGradient id="icer" x1="0" y1="0" x2="1" y2="1"><stop offset="0" stop-color="#cfe0e3"/><stop offset="1" stop-color="#9db8be"/></linearGradient><linearGradient id="icel" x1="0" y1="0" x2="1" y2="1"><stop offset="0" stop-color="#f1f7f8"/><stop offset="1" stop-color="#cfe0e3"/></linearGradient><linearGradient id="crimsonl" x1="0" y1="0" x2="1" y2="1"><stop offset="0" stop-color="#e4506a"/><stop offset="1" stop-color="#b0182e"/></linearGradient><linearGradient id="inkc" x1="0" y1="0" x2="1" y2="1"><stop offset="0" stop-color="#586058"/><stop offset="1" stop-color="#141814"/></linearGradient><linearGradient id="metalt" x1="0" y1="0" x2="1" y2="1"><stop offset="0" stop-color="#f2f4f2"/><stop offset="1" stop-color="#c5cbc6"/></linearGradient></defs><ellipse cx="3.0" cy="2.0" rx="37.5" ry="15.0" fill="url(#sh)"/><polygon points="-32.9,-39.0 -1.7,-21.0 -1.7,5.0 -32.9,-13.0" fill="url(#paperl)" stroke="url(#paperl)" stroke-width="1.2" stroke-linejoin="round"/><polygon points="19.1,-33.0 -1.7,-21.0 -1.7,5.0 19.1,-7.0" fill="url(#paperr)" stroke="url(#paperr)" stroke-width="1.2" stroke-linejoin="round"/><polygon points="-12.1,-51.0 19.1,-33.0 -1.7,-21.0 -32.9,-39.0" fill="url(#papert)" stroke="url(#papert)" stroke-width="1.2" stroke-linejoin="round"/><polyline points="-32.9,-13.0 -32.9,-39.0 -12.1,-51.0 19.1,-33.0" fill="none" stroke="#fff" stroke-opacity="0.7" stroke-width=".8" stroke-linecap="round" stroke-linejoin="round"/><polygon points="-1.7,-13.0 11.3,-5.5 11.3,12.5 -1.7,5.0" fill="url(#paperl)" stroke="url(#paperl)" stroke-width="1.2" stroke-linejoin="round"/><polygon points="32.0,-17.5 11.3,-5.5 11.3,12.5 32.0,0.5" fill="url(#paperr)" stroke="url(#paperr)" stroke-width="1.2" stroke-linejoin="round"/><polygon points="19.1,-25.0 32.0,-17.5 11.3,-5.5 -1.7,-13.0" fill="url(#papert)" stroke="url(#papert)" stroke-width="1.2" stroke-linejoin="round"/><polyline points="-1.7,5.0 -1.7,-13.0 19.1,-25.0 32.0,-17.5" fill="none" stroke="#fff" stroke-opacity="0.7" stroke-width=".8" stroke-linecap="round" stroke-linejoin="round"/><polygon points="29.4,-14.0 13.9,-5.0 13.9,2.0 29.4,-7.0" fill="url(#icer)" stroke="url(#icer)" stroke-width="1.2" stroke-linejoin="round"/><polygon points="0.0,-10.0 8.7,-5.0 8.7,2.0 0.0,-3.0" fill="url(#icel)" stroke="url(#icel)" stroke-width="1.2" stroke-linejoin="round"/><polygon points="-31.2,-21.0 -3.5,-5.0 -3.5,-2.0 -31.2,-18.0" fill="url(#crimsonl)" stroke="url(#crimsonl)" stroke-width="1.2" stroke-linejoin="round"/><polygon points="-31.2,-10.0 -31.1,-11.3 -30.7,-12.3 -30.0,-13.1 -27.4,-14.6 -26.6,-15.1 -25.6,-15.2 -24.5,-15.0 -23.4,-14.5 -22.2,-13.7 -21.1,-12.6 -20.1,-11.3 -19.3,-9.9 -18.7,-8.4 -18.3,-6.9 -18.2,-5.5 -18.3,-4.2 -18.7,-3.2 -19.3,-2.4 -21.9,-0.9 -22.7,-0.4 -23.7,-0.3 -24.8,-0.5 -26.0,-1.0 -27.1,-1.8 -28.2,-2.9 -29.2,-4.2 -30.0,-5.6 -30.7,-7.1 -31.1,-8.6" fill="url(#inkc)"/><polygon points="-20.8,-4.0 -20.9,-5.4 -21.3,-6.9 -21.9,-8.4 -22.7,-9.8 -23.7,-11.1 -24.8,-12.2 -26.0,-13.0 -27.1,-13.5 -28.2,-13.7 -29.2,-13.6 -30.0,-13.1 -30.7,-12.3 -31.0,-11.3 -31.2,-10.0 -31.0,-8.6 -30.7,-7.1 -30.0,-5.6 -29.2,-4.2 -28.2,-2.9 -27.1,-1.8 -26.0,-1.0 -24.8,-0.5 -23.7,-0.3 -22.7,-0.4 -21.9,-0.9 -21.3,-1.7 -20.9,-2.7" fill="url(#metalt)" stroke="url(#metalt)" stroke-width="1.2" stroke-linejoin="round"/><polygon points="-3.5,6.0 -3.3,4.7 -3.0,3.7 -2.3,2.9 0.3,1.4 1.1,0.9 2.1,0.8 3.2,1.0 4.3,1.5 5.5,2.3 6.6,3.4 7.6,4.7 8.4,6.1 9.0,7.6 9.4,9.1 9.5,10.5 9.4,11.8 9.0,12.8 8.4,13.6 5.8,15.1 5.0,15.6 4.0,15.7 2.9,15.5 1.7,15.0 0.6,14.2 -0.5,13.1 -1.5,11.8 -2.3,10.4 -3.0,8.9 -3.3,7.4" fill="url(#inkc)"/><polygon points="6.9,12.0 6.8,10.6 6.4,9.1 5.8,7.6 5.0,6.2 4.0,4.9 2.9,3.8 1.7,3.0 0.6,2.5 -0.5,2.3 -1.5,2.4 -2.3,2.9 -2.9,3.7 -3.3,4.7 -3.5,6.0 -3.3,7.4 -2.9,8.9 -2.3,10.4 -1.5,11.8 -0.5,13.1 0.6,14.2 1.7,15.0 2.9,15.5 4.0,15.7 5.0,15.6 5.8,15.1 6.4,14.3 6.8,13.3" fill="url(#metalt)" stroke="url(#metalt)" stroke-width="1.2" stroke-linejoin="round"/></svg>